<?xml version="1.0" encoding="UTF-8"?><svg id="Layer_1" xmlns="http://www.w3.org/2000/svg" viewBox="0 0 120 120"><path d="m100.73,4.41H19.23c-8.28,0-15,6.72-15,15v81.5c0,8.28,6.72,15,15,15h81.5c8.28,0,15-6.72,15-15V19.41c0-8.28-6.72-15-15-15Zm4.57,24.76v61.65h0c0,2.22-1.26,4.23-3.25,5.18l-18.91,9.1c-.19.09-.39.16-.58.23,0,0-.01,0-.02,0-.16.06-.32.1-.48.15-.11.03-.21.05-.32.07-.15.03-.29.06-.44.07-.21.03-.43.04-.64.04-.06,0-.12,0-.18,0-.66-.02-1.32-.14-1.93-.38-.12-.05-.23-.12-.35-.18-.09-.05-.19-.09-.28-.14-.48-.26-.94-.56-1.34-.96l-36.18-33.01-15.76,11.96c-.73.56-1.62.81-2.48.77-.87-.04-1.72-.37-2.41-.99l-5.06-4.6c-.83-.76-1.25-1.79-1.25-2.83,0-.03,0-.05,0-.08.02-1.01.43-2.01,1.24-2.75l13.67-12.47-13.67-12.47c-.83-.76-1.25-1.79-1.25-2.83,0-.02,0-.05,0-.07.02-1.01.43-2.02,1.24-2.76l5.06-4.6c.68-.62,1.54-.95,2.41-.99.87-.04,1.75.22,2.48.77l15.76,11.96,36.18-33.01c.21-.21.44-.41.68-.58.71-.52,1.53-.84,2.37-.99.05,0,.11-.02.16-.03.2-.03.4-.05.6-.06.1,0,.2,0,.31,0,.14,0,.28.01.43.03.15.01.3.02.45.05.06,0,.11.03.17.04.47.09.94.23,1.39.45l18.91,9.1c1.99.96,3.25,2.97,3.25,5.17h0Z" fill="#dfdfdf"/><polygon points="82.3 39.19 54.87 60 82.3 80.81 82.3 39.19" fill="#dfdfdf"/></svg>