<?xml version="1.0" encoding="UTF-8"?>
<svg id="uuid-0ce94fb4-2040-4d83-add6-43097d1b805b" data-name="Layer 1" xmlns="http://www.w3.org/2000/svg" viewBox="0 0 146 146">
  <rect x="2.33" y="8" width="140.54" height="130.05" style="fill: rgba(255, 255, 255, 0);"/>
  <path d="m130.51,135.85c2.83,2.89,7.58,2.85,10.26,0,2.77-2.91,2.81-7.4,0-10.27l-60.96-61.24c-2.8-2.85-7.58-2.85-10.27,0-2.81,2.87-2.76,7.44,0,10.27l60.97,61.24Zm-36.92-44.17l-19.27-19.31c-1.21-1.18-1.6-2.59-.41-3.77,1.04-1.03,2.5-.72,3.73.52l19.23,19.25-3.28,3.32Z" style="fill: rgba(255, 255, 255, .85);"/>
  <path d="m51.1,136.12c1.2,0,2.03-.85,2.2-2.11,2.22-17.17,2.81-17.53,20.36-20.42,1.39-.18,2.2-.91,2.2-2.15s-.81-2-1.95-2.2c-17.73-3.42-18.4-3.27-20.6-20.42-.17-1.26-.99-2.07-2.2-2.07s-2.03.81-2.15,2.02c-2.32,17.45-2.77,17.83-20.63,20.47-1.1.13-1.96,1-1.96,2.2s.85,1.96,1.95,2.15c17.9,3.46,18.29,3.38,20.64,20.53.13,1.15,1,2,2.15,2Zm-30.66-55.91c.88,0,1.44-.64,1.59-1.47,2.15-12.01,2.32-12.81,15-15.01.91-.18,1.5-.71,1.5-1.63s-.58-1.45-1.45-1.63c-12.76-2.28-12.83-3.07-15.05-15-.16-.84-.71-1.48-1.59-1.48s-1.47.64-1.58,1.47c-2.15,12.05-2.3,12.84-15.04,15.01-.91.17-1.5.71-1.5,1.63s.58,1.45,1.49,1.63c12.75,2.27,12.79,3.08,15.05,15.03.12.81.71,1.45,1.58,1.45Zm34.77-41.07c.76,0,1.17-.54,1.33-1.25,2.16-10.31,2.12-10.83,12.93-12.94.8-.18,1.32-.61,1.32-1.37s-.52-1.25-1.3-1.37c-10.88-2.22-10.91-2.68-12.96-12.93-.15-.77-.57-1.26-1.33-1.26s-1.21.49-1.37,1.25c-2.17,10.33-2.06,10.89-12.95,12.94-.77.11-1.26.6-1.26,1.37,0,.72.48,1.2,1.25,1.37,10.91,2.18,10.88,2.68,12.97,12.95.15.71.6,1.25,1.37,1.25Zm53.56,22.27c.87,0,1.46-.59,1.59-1.46,2.33-11.95,2.35-12.77,14.99-15.02.95-.13,1.55-.7,1.55-1.58s-.59-1.45-1.5-1.63c-12.72-2.32-12.9-3.1-15.04-15-.11-.88-.72-1.47-1.59-1.47s-1.43.59-1.59,1.46c-2.25,12-2.29,12.89-15.03,15.01-.87.16-1.48.71-1.47,1.63,0,.88.58,1.45,1.46,1.58,12.75,2.3,12.88,3.1,15.04,15.03.15.86.71,1.45,1.59,1.45Z" style="fill: rgba(255, 255, 255, .85);"/>
</svg>