<?xml version="1.0" encoding="UTF-8"?>
<svg id="uuid-1e17fc47-de3f-4bd4-b9de-e59a1f887bee" data-name="Layer 1" xmlns="http://www.w3.org/2000/svg" viewBox="0 0 190 146">
  <rect x="8.51" y="5.89" width="172.98" height="134.22" style="fill: rgba(255, 255, 255, 0);"/>
  <path d="m30.72,140.11h128.51c14.79,0,22.27-7.48,22.27-21.98V27.93c0-14.56-7.48-22.04-22.27-22.04H30.72c-14.73,0-22.21,7.42-22.21,22.04v90.2c0,14.62,7.48,21.98,22.21,21.98Zm.23-10.11c-7.99,0-12.33-4.22-12.33-12.45V28.44c0-8.16,4.34-12.45,12.33-12.45h128.11c7.82,0,12.27,4.28,12.27,12.45v89.12c0,8.22-4.45,12.45-12.27,12.45H30.94Z" style="fill: rgba(255, 255, 255, .85);"/>
  <path d="m39.51,61.95c-5.08,3.03-.8,10.68,4.74,7.19l21.41-13.42c3.71-2.28,3.54-7.76,0-9.99l-21.41-13.42c-5.54-3.48-9.88,4.11-4.74,7.25l18.5,11.19-18.5,11.19Zm30.49,7.71c0,2.28,1.77,4.11,4.11,4.11h28.03c2.34,0,4.11-1.83,4.11-4.11s-1.77-4.17-4.11-4.17h-28.03c-2.34,0-4.11,1.83-4.11,4.17Z" style="fill: rgba(255, 255, 255, .85);"/>
</svg>