<?xml version="1.0" encoding="UTF-8"?>
<svg id="uuid-b0e61209-f0a1-493a-8aef-ceb9a086d80d" data-name="Layer 1" xmlns="http://www.w3.org/2000/svg" viewBox="0 0 160 160">
  <rect x="3.27" y="2.6" width="153.66" height="153.89" style="fill: rgba(208, 208, 208, 0);"/>
  <path d="m3.27,107.35c0,2.45,1.75,4.2,4.25,4.2h9.29v26.41c0,3.04,1.96,5,5,5h26.29v9.29c0,2.5,1.75,4.25,4.2,4.25s4.26-1.75,4.26-4.25v-9.29h19.28v9.29c0,2.5,1.81,4.25,4.26,4.25s4.25-1.75,4.25-4.25v-9.29h19.3v9.29c0,2.5,1.75,4.25,4.25,4.25s4.22-1.75,4.22-4.25v-9.29h26.29c3.04,0,4.98-1.96,4.98-5v-26.43h9.29c2.5,0,4.26-1.77,4.26-4.22s-1.77-4.25-4.26-4.25h-9.29v-19.34h9.29c2.5,0,4.26-1.75,4.26-4.2s-1.77-4.26-4.26-4.26h-9.29v-19.32h9.29c2.5,0,4.26-1.77,4.26-4.22s-1.77-4.24-4.26-4.24h-9.29v-26.1c0-3.04-1.95-4.98-4.98-4.98h-26.29V7.09c0-2.5-1.77-4.26-4.22-4.26s-4.25,1.77-4.25,4.26v9.29h-19.3V7.09c0-2.5-1.75-4.26-4.25-4.26s-4.26,1.77-4.26,4.26v9.29h-19.28V7.09c0-2.5-1.77-4.26-4.26-4.26s-4.2,1.77-4.2,4.26v9.29h-26.29c-3.04,0-5,1.94-5,4.98v26.13H7.51c-2.5,0-4.25,1.77-4.25,4.26s1.75,4.2,4.25,4.2h9.29v19.34H7.51c-2.5,0-4.25,1.75-4.25,4.25s1.75,4.22,4.25,4.22h9.29v19.34H7.51c-2.5,0-4.25,1.75-4.25,4.25Zm43.3,10.8c-3.23,0-4.96-1.66-4.96-4.98V46.16c0-3.32,1.72-4.98,4.96-4.98h67.12c3.27,0,4.95,1.66,4.95,4.98v67.01c0,3.32-1.68,4.98-4.95,4.98H46.57Zm2.53-9.22c0,1.09.71,1.74,1.8,1.74h58.46c1.09,0,1.8-.65,1.8-1.74v-58.52c0-1.07-.71-1.78-1.8-1.78h-58.46c-1.09,0-1.8.71-1.8,1.78v58.52Z" style="fill: rgba(208, 208, 208, .85);"/>
</svg>