<?xml version="1.0" encoding="UTF-8"?>
<svg id="uuid-55434328-d57c-444f-a847-53a15bae749f" data-name="Layer 1" xmlns="http://www.w3.org/2000/svg" viewBox="0 0 160 160">
  <rect x="3.34" y="2.82" width="153.66" height="153.89" style="fill: rgba(208, 208, 208, 0);"/>
  <path d="m3.34,107.57c0,2.45,1.75,4.2,4.25,4.2h9.29v26.41c0,3.04,1.96,5,5,5h26.29v9.29c0,2.5,1.75,4.25,4.2,4.25s4.26-1.75,4.26-4.25v-9.29h19.28v9.29c0,2.5,1.81,4.25,4.26,4.25s4.25-1.75,4.25-4.25v-9.29h19.3v9.29c0,2.5,1.75,4.25,4.25,4.25s4.22-1.75,4.22-4.25v-9.29h26.29c3.04,0,4.98-1.96,4.98-5v-26.43h9.29c2.5,0,4.26-1.77,4.26-4.22s-1.77-4.25-4.26-4.25h-9.29v-19.34h9.29c2.5,0,4.26-1.75,4.26-4.2s-1.77-4.26-4.26-4.26h-9.29v-19.32h9.29c2.5,0,4.26-1.77,4.26-4.22s-1.77-4.24-4.26-4.24h-9.29v-26.1c0-3.04-1.95-4.98-4.98-4.98h-26.29V7.31c0-2.5-1.77-4.26-4.22-4.26s-4.25,1.77-4.25,4.26v9.29h-19.3V7.31c0-2.5-1.75-4.26-4.25-4.26s-4.26,1.77-4.26,4.26v9.29h-19.28V7.31c0-2.5-1.77-4.26-4.26-4.26s-4.2,1.77-4.2,4.26v9.29h-26.29c-3.04,0-5,1.94-5,4.98v26.13H7.58c-2.5,0-4.25,1.77-4.25,4.26s1.75,4.2,4.25,4.2h9.29v19.34H7.58c-2.5,0-4.25,1.75-4.25,4.25s1.75,4.22,4.25,4.22h9.29v19.34H7.58c-2.5,0-4.25,1.75-4.25,4.25Zm22,25.19V27c0-1.33.62-1.94,1.95-1.94h105.76c1.33,0,1.93.61,1.93,1.94v105.76c0,1.33-.6,1.96-1.93,1.96H27.29c-1.33,0-1.95-.62-1.95-1.96Zm21.78-14.94h66.23c3.14,0,4.83-1.62,4.83-4.87V46.81c0-3.23-1.68-4.87-4.83-4.87H47.12c-3.21,0-4.85,1.64-4.85,4.87v66.14c0,3.25,1.64,4.87,4.85,4.87Zm2.4-8.99v-57.89c0-1.05.71-1.72,1.76-1.72h57.85c1.05,0,1.76.67,1.76,1.72v57.89c0,1-.71,1.7-1.76,1.7h-57.85c-1.05,0-1.76-.69-1.76-1.7Z" style="fill: rgba(208, 208, 208, .85);"/>
</svg>