<?xml version="1.0" encoding="UTF-8"?>
<svg id="uuid-9fac5eb1-41be-4255-a8fb-83c452e93cbf" data-name="Layer 1" xmlns="http://www.w3.org/2000/svg" viewBox="0 0 160 160">
  <rect x="17.82" y="5" width="123.38" height="155.78" style="fill: rgba(208, 208, 208, 0);"/>
  <path d="m31.62,77.41c0,25.48,17.1,43.64,43.04,45.15v20.12h-27.32c-1.95,0-3.47,1.54-3.47,3.44s1.53,3.46,3.47,3.46h61.52c1.89,0,3.42-1.56,3.42-3.46s-1.53-3.44-3.42-3.44h-27.32v-20.12c25.89-1.51,43-19.67,43-45.15v-13.25c0-1.89-1.54-3.44-3.44-3.44s-3.46,1.54-3.46,3.44v13.04c0,22.98-15.54,38.89-39.58,38.89s-39.56-15.91-39.56-38.89v-13.04c0-1.89-1.54-3.44-3.47-3.44s-3.42,1.54-3.42,3.44v13.25Zm23.51-2.81c0,14.35,9.14,24.89,22.95,24.89s22.96-10.54,22.96-24.89V29.87c0-14.35-9.14-24.87-22.96-24.87s-22.95,10.52-22.95,24.87v44.73Zm6.89,0V29.87c0-10.55,6.24-18.15,16.05-18.15s16.07,7.6,16.07,18.15v44.73c0,10.55-6.24,18.15-16.07,18.15s-16.05-7.6-16.05-18.15Z" style="fill: rgba(208, 208, 208, .85);"/>
  <path d="m128.54,128.99c1.36,1.36,3.64,1.36,4.96,0,1.4-1.43,1.4-3.6,0-5L30.46,21.05c-1.33-1.33-3.59-1.43-5.02,0-1.34,1.33-1.34,3.64,0,4.96l103.1,102.97Z" style="fill: rgba(208, 208, 208, .85);"/>
</svg>