<?xml version="1.0" encoding="UTF-8"?>
<svg id="uuid-1b632f0d-f573-4155-9dfd-99f5c9307854" data-name="Layer 1" xmlns="http://www.w3.org/2000/svg" viewBox="0 0 160 160">
  <rect x="31.67" y="4" width="93.69" height="156.39" style="fill: rgba(208, 208, 208, 0);"/>
  <path d="m31.67,76.67c0,25.69,17.25,44,43.39,45.52v20.28h-27.54c-1.94,0-3.49,1.56-3.49,3.46s1.54,3.48,3.49,3.48h62.03c1.91,0,3.45-1.58,3.45-3.48s-1.54-3.46-3.45-3.46h-27.54v-20.28c26.11-1.52,43.35-19.83,43.35-45.52v-13.36c0-1.91-1.54-3.46-3.46-3.46s-3.49,1.56-3.49,3.46v13.15c0,23.17-15.66,39.21-39.91,39.21s-39.89-16.04-39.89-39.21v-13.15c0-1.91-1.54-3.46-3.46-3.46s-3.49,1.56-3.49,3.46v13.36Zm46.84,21.92c13.4,0,22.1-10.16,22.1-24.08V28.08c0-13.9-8.7-24.08-22.1-24.08s-22.09,10.18-22.09,24.08v46.43c0,13.92,8.74,24.08,22.09,24.08Z" style="fill: rgba(208, 208, 208, .85);"/>
</svg>