<?xml version="1.0" encoding="UTF-8"?>
<svg id="uuid-a74c6980-1d07-4394-9d1a-7289d6d236e3" data-name="Layer 1" xmlns="http://www.w3.org/2000/svg" viewBox="0 0 160 160">
  <rect x="7.6" y="7.01" width="145" height="145.08" style="fill: rgba(208, 208, 208, 0);"/>
  <path d="m35.37,17.99c3.04,0,5.5-2.49,5.5-5.48s-2.46-5.5-5.5-5.5-5.48,2.46-5.48,5.5,2.49,5.48,5.48,5.48Zm22.32,0c3.03,0,5.54-2.49,5.54-5.48s-2.51-5.5-5.54-5.5-5.48,2.46-5.48,5.5,2.49,5.48,5.48,5.48Zm22.32,0c3.03,0,5.54-2.49,5.54-5.48s-2.51-5.5-5.54-5.5-5.48,2.46-5.48,5.5,2.49,5.48,5.48,5.48Zm22.4,0c3.04,0,5.5-2.49,5.5-5.48s-2.46-5.5-5.5-5.5-5.48,2.46-5.48,5.5,2.49,5.48,5.48,5.48Zm22.32,0c3.04,0,5.54-2.49,5.54-5.48s-2.51-5.5-5.54-5.5-5.48,2.46-5.48,5.5,2.49,5.48,5.48,5.48Zm22.36,0c3.01,0,5.5-2.49,5.5-5.48s-2.49-5.5-5.5-5.5-5.52,2.46-5.52,5.5,2.49,5.48,5.52,5.48Zm0,22.32c3.01,0,5.5-2.49,5.5-5.48s-2.49-5.5-5.5-5.5-5.52,2.51-5.52,5.5,2.49,5.48,5.52,5.48Zm0,22.32c3.01,0,5.5-2.44,5.5-5.48s-2.49-5.5-5.5-5.5-5.52,2.51-5.52,5.5,2.49,5.48,5.52,5.48Zm0,22.4c3.01,0,5.5-2.49,5.5-5.48s-2.49-5.5-5.5-5.5-5.52,2.46-5.52,5.5,2.49,5.48,5.52,5.48Zm0,22.32c3.01,0,5.5-2.44,5.5-5.48s-2.49-5.5-5.5-5.5-5.52,2.51-5.52,5.5,2.49,5.48,5.52,5.48Zm0,22.36c3.01,0,5.5-2.49,5.5-5.52s-2.49-5.5-5.5-5.5-5.52,2.51-5.52,5.5,2.49,5.52,5.52,5.52ZM12.58,152.05h135.76c2.39,0,4.26-1.88,4.26-4.22s-1.88-4.2-4.26-4.2H17.97c-1.33,0-1.95-.62-1.95-1.95V11.19c0-2.3-1.88-4.18-4.2-4.18s-4.22,1.88-4.22,4.18v135.87c0,3.08,1.94,5,4.98,5Z" style="fill: rgba(208, 208, 208, .85);"/>
  <path d="m35,119.82c-.63,2.84,1.66,4.99,4.54,4.33l25.94-5.46c3.09-.61,4.2-3.46,2.14-5.56l-8.23-8.31,46.21-45.75,8.23,8.31c2.1,2.06,5.14.95,5.77-2.14l5.56-26.04c.67-2.81-1.71-4.99-4.56-4.33l-25.94,5.46c-3.07.61-4.2,3.46-2.14,5.56l8.29,8.31-46.26,45.75-8.25-8.31c-2.06-2.1-5.14-.9-5.75,2.14l-5.56,26.04Z" style="fill: rgba(208, 208, 208, .85);"/>
</svg>